<svg width="800" height="440" viewBox="0 0 800 440" xmlns="http://www.w3.org/2000/svg" xmlns:xlink="http://www.w3.org/1999/xlink">
<defs>
<style>
@keyframes tGlow{0%,100%{filter:drop-shadow(0 0 9px rgba(210,170,80,.5));}50%{filter:drop-shadow(0 0 24px rgba(220,180,80,.98)) drop-shadow(0 0 50px rgba(200,120,0,.5));}}
@keyframes nGlow{0%,100%{fill:#00aaff;filter:drop-shadow(0 0 7px rgba(0,170,255,.5));}50%{fill:#66ccff;filter:drop-shadow(0 0 22px rgba(0,170,255,.98)) drop-shadow(0 0 40px rgba(0,100,255,.3));}}
@keyframes twk{0%,100%{opacity:.15;}50%{opacity:1;}}
@keyframes wPls{0%,100%{opacity:.5;fill:#7a6a48;}50%{opacity:1;fill:#d4a840;}}
@keyframes aotGlow{0%,100%{filter:drop-shadow(0 0 8px rgba(69,212,168,.4));}50%{filter:drop-shadow(0 0 28px rgba(69,212,168,.98)) drop-shadow(0 0 55px rgba(69,212,168,.3));}}
@keyframes cfGlow{0%,100%{filter:drop-shadow(0 0 4px rgba(0,180,100,.06));}50%{filter:drop-shadow(0 0 18px rgba(0,200,120,.25));}}
@keyframes fPls{0%,100%{opacity:.2;}50%{opacity:.65;}}
@keyframes lxFlash{0%,85%,100%{opacity:0;}87%,91%,95%{opacity:.9;}89%,93%{opacity:.1;}}
@keyframes dotBlk{0%,100%{opacity:1;}50%{opacity:.25;}}
@keyframes swAnim{0%,100%{filter:brightness(.85);}50%{filter:brightness(1.3);}}
@keyframes bPls{0%,100%{opacity:.85;}50%{opacity:1;}}
@keyframes ringSpin{to{transform:rotate(360deg);}}
@keyframes cursor{0%,100%{opacity:1;}49%{opacity:1;}50%,99%{opacity:0;}}
@keyframes termLine1{0%,10%{width:0;}40%,100%{width:280px;}}
@keyframes termLine2{0%,35%{width:0;}65%,100%{width:320px;}}
@keyframes scanH{0%{transform:translateY(0);}100%{transform:translateY(460px);}}
@keyframes shimmer{0%{stop-color:#d4a840;stop-opacity:.2;}50%{stop-color:#ffd060;stop-opacity:.8;}100%{stop-color:#d4a840;stop-opacity:.2;}}
@keyframes borderPulse{0%,100%{stroke-opacity:.4;}50%{stroke-opacity:1;}}
.star{animation:twk var(--d,3s) ease-in-out infinite var(--dl,0s);}
.main-title{animation:tGlow 3.5s ease-in-out infinite;}
.name-text{animation:nGlow 4s ease-in-out infinite;}
.wl1{animation:wPls 5s ease-in-out infinite;}
.wl2{animation:wPls 5s 1.5s ease-in-out infinite;}
.wl3{animation:wPls 5s 3s ease-in-out infinite;}
.aot-title{animation:aotGlow 5s ease-in-out infinite;}
.cframe-g{animation:cfGlow 4.5s ease-in-out infinite;}
.footer-wings{animation:fPls 6s ease-in-out infinite;}
.lx{animation:lxFlash 6s ease-in-out infinite;}
.badge1{animation:bPls 3s ease-in-out infinite;}
.badge2{animation:bPls 3.5s .5s ease-in-out infinite;}
.badge3{animation:bPls 4s 1s ease-in-out infinite;}
.badge4{animation:bPls 3.2s 1.5s ease-in-out infinite;}
.cursor{animation:cursor 1s step-end infinite;}
.border-pulse{animation:borderPulse 3s ease-in-out infinite;}
</style>
<linearGradient id="titleGrad" x1="0%" y1="0%" x2="100%" y2="0%">
  <stop offset="0%" stop-color="#b8960c"/>
  <stop offset="40%" stop-color="#f0d060"/>
  <stop offset="100%" stop-color="#c8a020"/>
</linearGradient>
<linearGradient id="bgGrad" x1="0%" y1="0%" x2="0%" y2="100%">
  <stop offset="0%" stop-color="#03070f"/>
  <stop offset="100%" stop-color="#010408"/>
</linearGradient>
<linearGradient id="scanGrad" x1="0%" y1="0%" x2="100%" y2="0%">
  <stop offset="0%" stop-color="transparent"/>
  <stop offset="50%" stop-color="#1aaf68"/>
  <stop offset="100%" stop-color="transparent"/>
</linearGradient>
<clipPath id="clip-lp"><rect x="108" y="182" width="110" height="100"/></clipPath>
<clipPath id="clip-rp"><rect x="582" y="182" width="110" height="100"/></clipPath>
<!-- Wings symbol (Survey Corps) -->
<symbol id="wings" viewBox="0 0 60 40">
  <ellipse cx="14" cy="20" rx="12" ry="6" fill="#45d4a8" opacity=".9"/>
  <ellipse cx="46" cy="20" rx="12" ry="6" fill="#45d4a8" opacity=".9"/>
  <rect x="27" y="12" width="6" height="16" rx="3" fill="#45d4a8"/>
  <path d="M4 20 Q14 8 27 18" stroke="#7af8d8" stroke-width="1.5" fill="none"/>
  <path d="M56 20 Q46 8 33 18" stroke="#7af8d8" stroke-width="1.5" fill="none"/>
</symbol>
<symbol id="wings-sm" viewBox="0 0 60 40">
  <ellipse cx="14" cy="20" rx="12" ry="6" fill="#45d4a8"/>
  <ellipse cx="46" cy="20" rx="12" ry="6" fill="#45d4a8"/>
  <rect x="27" y="12" width="6" height="16" rx="3" fill="#45d4a8"/>
</symbol>
<!-- Sword left-pointing (blade left, handle right) -->
<symbol id="sword-l" viewBox="0 0 160 24">
  <rect x="0" y="10" width="120" height="4" fill="#b8c8d8"/>
  <rect x="20" y="10" width="60" height="4" fill="#d8e8f8"/>
  <rect x="0" y="9" width="120" height="1" fill="#e8f0ff" opacity=".6"/>
  <rect x="120" y="7" width="16" height="10" fill="#6a4020" rx="1"/>
  <rect x="136" y="8" width="24" height="8" fill="#4a2a10" rx="1"/>
</symbol>
<!-- Sword right-pointing (blade right, handle left) -->
<symbol id="sword-r" viewBox="0 0 160 24">
  <rect x="40" y="10" width="120" height="4" fill="#b8c8d8"/>
  <rect x="80" y="10" width="60" height="4" fill="#d8e8f8"/>
  <rect x="40" y="9" width="120" height="1" fill="#e8f0ff" opacity=".6"/>
  <rect x="24" y="7" width="16" height="10" fill="#6a4020" rx="1"/>
  <rect x="0" y="8" width="24" height="8" fill="#4a2a10" rx="1"/>
</symbol>
</defs>

<!-- ═══════════════════════════════════════════════════ -->
<!-- SECTION 1 — HEADER  (y 0..165)                     -->
<!-- ═══════════════════════════════════════════════════ -->
<rect x="0" y="0" width="800" height="165" fill="url(#bgGrad)"/>
<!-- Animated top border glow -->
<rect x="0" y="0" width="800" height="2" fill="#45d4a8" class="border-pulse"/>
<line x1="0" y1="163" x2="800" y2="163" stroke="#1c3a28" stroke-width="2"/>

<!-- Scroll end LEFT -->
<rect x="0" y="0" width="52" height="165" fill="#1a0c00"/>
<line x1="52" y1="0" x2="52" y2="165" stroke="#6b4500" stroke-width="3"/>
<circle cx="26" cy="28" r="14" stroke="#8a6020" stroke-width="2" fill="#2a1800"/>
<circle cx="26" cy="28" r="7" stroke="#c08030" stroke-width="1" fill="#1a0e00">
  <animateTransform attributeName="transform" type="rotate" from="0 26 28" to="360 26 28" dur="8s" repeatCount="indefinite"/>
</circle>
<rect x="24" y="46" width="4" height="69" fill="#2a1400" rx="2"/>
<circle cx="26" cy="133" r="14" stroke="#8a6020" stroke-width="2" fill="#2a1800"/>
<circle cx="26" cy="133" r="7" stroke="#c08030" stroke-width="1" fill="#1a0e00">
  <animateTransform attributeName="transform" type="rotate" from="0 26 133" to="360 26 133" dur="8s" begin="-0.4s" repeatCount="indefinite"/>
</circle>

<!-- Scroll end RIGHT -->
<rect x="748" y="0" width="52" height="165" fill="#1a0c00"/>
<line x1="748" y1="0" x2="748" y2="165" stroke="#6b4500" stroke-width="3"/>
<circle cx="774" cy="28" r="14" stroke="#8a6020" stroke-width="2" fill="#2a1800"/>
<circle cx="774" cy="28" r="7" stroke="#c08030" stroke-width="1" fill="#1a0e00">
  <animateTransform attributeName="transform" type="rotate" from="0 774 28" to="360 774 28" dur="8s" begin="-0.7s" repeatCount="indefinite"/>
</circle>
<rect x="772" y="46" width="4" height="69" fill="#2a1400" rx="2"/>
<circle cx="774" cy="133" r="14" stroke="#8a6020" stroke-width="2" fill="#2a1800"/>
<circle cx="774" cy="133" r="7" stroke="#c08030" stroke-width="1" fill="#1a0e00">
  <animateTransform attributeName="transform" type="rotate" from="0 774 133" to="360 774 133" dur="8s" begin="-1.1s" repeatCount="indefinite"/>
</circle>

<!-- Stars -->
<circle cx="497.0" cy="4.0" r="1.2" fill="#fff" class="star" style="--d:2.7s;--dl:-4.4s"/>
<circle cx="523.0" cy="142.7" r="0.7" fill="#fff" class="star" style="--d:3.5s;--dl:-0.2s"/>
<circle cx="204.2" cy="80.9" r="0.6" fill="#fff" class="star" style="--d:2.6s;--dl:-3.9s"/>
<circle cx="431.3" cy="35.3" r="2.0" fill="#fff" class="star" style="--d:5.0s;--dl:-0.0s"/>
<circle cx="612.9" cy="111.7" r="1.4" fill="#fff" class="star" style="--d:2.4s;--dl:-5.7s"/>
<circle cx="286.3" cy="14.8" r="0.7" fill="#fff" class="star" style="--d:5.2s;--dl:-3.6s"/>
<circle cx="613.8" cy="116.8" r="1.8" fill="#fff" class="star" style="--d:5.7s;--dl:-2.3s"/>
<circle cx="436.2" cy="132.7" r="2.0" fill="#fff" class="star" style="--d:5.2s;--dl:-3.5s"/>
<circle cx="542.4" cy="7.3" r="1.1" fill="#fff" class="star" style="--d:3.0s;--dl:-0.5s"/>
<circle cx="214.0" cy="16.2" r="1.2" fill="#fff" class="star" style="--d:4.3s;--dl:-2.2s"/>
<circle cx="309.6" cy="33.5" r="1.2" fill="#fff" class="star" style="--d:5.5s;--dl:-3.9s"/>
<circle cx="476.0" cy="27.4" r="2.3" fill="#fff" class="star" style="--d:2.5s;--dl:-2.3s"/>
<circle cx="740.7" cy="102.4" r="1.9" fill="#fff" class="star" style="--d:4.5s;--dl:-5.1s"/>
<circle cx="592.1" cy="36.6" r="0.6" fill="#fff" class="star" style="--d:3.1s;--dl:-1.6s"/>
<circle cx="198.8" cy="150.9" r="2.7" fill="#fff" class="star" style="--d:3.1s;--dl:-3.9s"/>
<circle cx="327.4" cy="146.3" r="1.6" fill="#fff" class="star" style="--d:2.9s;--dl:-1.5s"/>
<circle cx="442.7" cy="42.0" r="2.0" fill="#fff" class="star" style="--d:5.4s;--dl:-2.4s"/>
<circle cx="204.6" cy="159.6" r="1.8" fill="#fff" class="star" style="--d:2.2s;--dl:-0.3s"/>
<circle cx="128.3" cy="100.4" r="2.5" fill="#fff" class="star" style="--d:3.5s;--dl:-0.4s"/>
<circle cx="317.6" cy="159.4" r="1.8" fill="#fff" class="star" style="--d:5.7s;--dl:-5.2s"/>
<circle cx="60.0" cy="115.3" r="2.2" fill="#fff" class="star" style="--d:3.9s;--dl:-1.6s"/>
<circle cx="498.1" cy="17.8" r="1.6" fill="#fff" class="star" style="--d:3.6s;--dl:-5.7s"/>
<circle cx="661.6" cy="42.1" r="1.8" fill="#fff" class="star" style="--d:2.5s;--dl:-5.5s"/>
<circle cx="657.9" cy="47.8" r="2.1" fill="#fff" class="star" style="--d:4.2s;--dl:-0.9s"/>
<circle cx="582.7" cy="86.3" r="2.4" fill="#fff" class="star" style="--d:3.9s;--dl:-0.0s"/>
<circle cx="277.6" cy="3.1" r="2.8" fill="#fff" class="star" style="--d:5.3s;--dl:-5.0s"/>
<circle cx="266.0" cy="9.3" r="2.7" fill="#fff" class="star" style="--d:5.6s;--dl:-0.5s"/>
<circle cx="390.2" cy="11.1" r="2.4" fill="#fff" class="star" style="--d:4.9s;--dl:-0.8s"/>
<circle cx="382.8" cy="88.0" r="1.2" fill="#fff" class="star" style="--d:5.3s;--dl:-2.5s"/>
<circle cx="199.4" cy="86.3" r="2.3" fill="#fff" class="star" style="--d:2.6s;--dl:-1.9s"/>
<circle cx="744.6" cy="104.0" r="1.6" fill="#fff" class="star" style="--d:3.9s;--dl:-0.7s"/>
<circle cx="208.4" cy="54.1" r="2.0" fill="#fff" class="star" style="--d:2.7s;--dl:-1.3s"/>
<circle cx="101.4" cy="101.0" r="1.1" fill="#fff" class="star" style="--d:5.4s;--dl:-5.2s"/>
<circle cx="101.3" cy="38.1" r="2.2" fill="#fff" class="star" style="--d:2.7s;--dl:-0.8s"/>
<circle cx="703.1" cy="91.4" r="1.7" fill="#fff" class="star" style="--d:4.9s;--dl:-4.8s"/>
<circle cx="184.5" cy="15.5" r="1.6" fill="#fff" class="star" style="--d:3.5s;--dl:-2.8s"/>
<circle cx="559.4" cy="107.7" r="3.0" fill="#fff" class="star" style="--d:2.2s;--dl:-2.4s"/>
<circle cx="288.2" cy="137.9" r="1.1" fill="#fff" class="star" style="--d:2.6s;--dl:-2.7s"/>
<circle cx="345.6" cy="44.6" r="1.1" fill="#fff" class="star" style="--d:5.5s;--dl:-2.7s"/>
<circle cx="651.5" cy="88.1" r="0.6" fill="#fff" class="star" style="--d:5.8s;--dl:-5.0s"/>
<circle cx="726.4" cy="148.2" r="2.6" fill="#fff" class="star" style="--d:2.5s;--dl:-2.9s"/>
<circle cx="200.8" cy="64.2" r="0.6" fill="#fff" class="star" style="--d:3.3s;--dl:-5.9s"/>
<circle cx="236.6" cy="125.5" r="1.6" fill="#fff" class="star" style="--d:3.5s;--dl:-5.7s"/>
<circle cx="744.8" cy="88.9" r="2.3" fill="#fff" class="star" style="--d:2.4s;--dl:-1.8s"/>
<circle cx="726.2" cy="92.7" r="1.9" fill="#fff" class="star" style="--d:4.8s;--dl:-0.3s"/>
<circle cx="458.6" cy="80.5" r="2.6" fill="#fff" class="star" style="--d:2.4s;--dl:-5.8s"/>
<circle cx="107.8" cy="29.7" r="2.0" fill="#fff" class="star" style="--d:4.5s;--dl:-1.4s"/>
<circle cx="135.4" cy="142.4" r="1.1" fill="#fff" class="star" style="--d:4.2s;--dl:-3.7s"/>
<circle cx="343.8" cy="93.4" r="1.8" fill="#fff" class="star" style="--d:5.5s;--dl:-1.2s"/>
<circle cx="550.5" cy="38.2" r="1.5" fill="#fff" class="star" style="--d:4.5s;--dl:-1.8s"/>
<circle cx="272.1" cy="120.3" r="0.7" fill="#fff" class="star" style="--d:3.6s;--dl:-6.0s"/>
<circle cx="745.3" cy="11.7" r="1.0" fill="#fff" class="star" style="--d:2.9s;--dl:-5.6s"/>
<circle cx="665.1" cy="140.7" r="1.4" fill="#fff" class="star" style="--d:2.4s;--dl:-5.0s"/>
<circle cx="541.7" cy="97.9" r="3.0" fill="#fff" class="star" style="--d:4.4s;--dl:-0.0s"/>
<circle cx="620.7" cy="47.9" r="2.2" fill="#fff" class="star" style="--d:5.6s;--dl:-0.8s"/>
<circle cx="132.3" cy="17.1" r="1.9" fill="#fff" class="star" style="--d:2.9s;--dl:-3.6s"/>
<circle cx="551.5" cy="32.6" r="2.1" fill="#fff" class="star" style="--d:2.9s;--dl:-2.9s"/>
<circle cx="682.1" cy="135.4" r="0.7" fill="#fff" class="star" style="--d:3.5s;--dl:-1.7s"/>
<circle cx="54.5" cy="123.4" r="2.1" fill="#fff" class="star" style="--d:2.8s;--dl:-4.4s"/>
<circle cx="436.0" cy="68.4" r="0.5" fill="#fff" class="star" style="--d:2.1s;--dl:-5.3s"/>

<!-- Swords (animated, centre = pivot point for rotation) -->
<!-- tl: positioned at (54,22) size 160x24, centre (134,34), rotate -38° -->
<g style="animation:swAnim 7s ease-in-out infinite;">
  <use href="#sword-l" x="54" y="22" width="160" height="24" transform="rotate(-38,134,34)">
    <animate attributeName="opacity" values=".8;1;.8" dur="2.5s" repeatCount="indefinite"/>
  </use>
</g>
<!-- tr: positioned at (586,22), centre (666,34), rotate +38° -->
<g style="animation:swAnim 7s .6s ease-in-out infinite;">
  <use href="#sword-r" x="586" y="22" width="160" height="24" transform="rotate(38,666,34)">
    <animate attributeName="opacity" values=".8;1;.8" dur="3s" repeatCount="indefinite"/>
  </use>
</g>
<!-- tl2: positioned at (72,10), centre (152,22), rotate +32° -->
<g style="animation:swAnim 7s ease-in-out infinite;">
  <use href="#sword-l" x="72" y="10" width="160" height="24" transform="rotate(32,152,22)">
    <animate attributeName="opacity" values=".7;.95;.7" dur="3.5s" repeatCount="indefinite"/>
  </use>
</g>
<!-- tr2: positioned at (568,10), centre (648,22), rotate -32° -->
<g style="animation:swAnim 7s .6s ease-in-out infinite;">
  <use href="#sword-r" x="568" y="10" width="160" height="24" transform="rotate(-32,648,22)">
    <animate attributeName="opacity" values=".7;.95;.7" dur="4s" repeatCount="indefinite"/>
  </use>
</g>

<!-- Profile counter -->
<text x="792" y="18" font-family="Arial,Helvetica,sans-serif" font-size="9" fill="#4a6a4a" letter-spacing=".5" text-anchor="end">Profile views · 2147</text>

<!-- Main title with gradient fill -->
<text class="main-title" x="400" y="65" font-family="Georgia,'Times New Roman',serif" font-size="36" font-weight="900" fill="url(#titleGrad)" letter-spacing="5" text-anchor="middle">SHINGEKI NO CODER</text>

<text class="name-text" x="400" y="94" font-family="Georgia,'Times New Roman',serif" font-size="20" font-weight="700" fill="#00aaff" text-anchor="middle">Omar Nagi</text>



<!-- Wall labels -->
<rect x="68" y="147" width="52" height="16" fill="none" stroke="#3a2a10" stroke-width="1"/>
<text class="wl1" x="94" y="158" font-family="Georgia,serif" font-size="8.5" fill="#7a6a48" letter-spacing="2.5" text-anchor="middle">MARIA</text>
<rect x="374" y="147" width="52" height="16" fill="none" stroke="#3a2a10" stroke-width="1"/>
<text class="wl2" x="400" y="158" font-family="Georgia,serif" font-size="8.5" fill="#7a6a48" letter-spacing="2.5" text-anchor="middle">ROSE</text>
<rect x="680" y="147" width="52" height="16" fill="none" stroke="#3a2a10" stroke-width="1"/>
<text class="wl3" x="706" y="158" font-family="Georgia,serif" font-size="8.5" fill="#7a6a48" letter-spacing="2.5" text-anchor="middle">SINA</text>

<!-- ═══════════════════════════════════════════════════ -->
<!-- SECTION 2 — AOT FRAME  (y 165..295)                -->
<!-- ═══════════════════════════════════════════════════ -->
<rect x="0" y="165" width="800" height="130" fill="#040c10"/>
<line x1="0" y1="295" x2="800" y2="295" stroke="#0d2820" stroke-width="2"/>

<!-- Circuit lines -->
<g stroke="#0d3a20" stroke-width="1" fill="none" opacity=".5">
  <line x1="0" y1="195" x2="212" y2="195"><animate attributeName="opacity" values=".2;.8;.2" dur="3s" repeatCount="indefinite"/></line>
  <line x1="0" y1="232" x2="140" y2="232"><animate attributeName="opacity" values=".3;.9;.3" dur="4s" begin=".8s" repeatCount="indefinite"/></line>
  <line x1="588" y1="195" x2="800" y2="195"><animate attributeName="opacity" values=".2;.8;.2" dur="3.2s" begin=".4s" repeatCount="indefinite"/></line>
  <line x1="660" y1="232" x2="800" y2="232"><animate attributeName="opacity" values=".3;.9;.3" dur="4.2s" begin="1s" repeatCount="indefinite"/></line>
  <line x1="140" y1="165" x2="140" y2="295"><animate attributeName="opacity" values=".15;.6;.15" dur="5s" begin=".2s" repeatCount="indefinite"/></line>
  <line x1="660" y1="165" x2="660" y2="295"><animate attributeName="opacity" values=".15;.6;.15" dur="5s" begin="1.2s" repeatCount="indefinite"/></line>
  <circle cx="140" cy="195" r="3" fill="#1aaf68"><animate attributeName="opacity" values=".3;1;.3" dur="3s" repeatCount="indefinite"/></circle>
  <circle cx="660" cy="195" r="3" fill="#1aaf68"><animate attributeName="opacity" values=".3;1;.3" dur="3.2s" begin=".4s" repeatCount="indefinite"/></circle>
  <circle cx="660" cy="232" r="3" fill="#1aaf68"><animate attributeName="opacity" values=".3;1;.3" dur="4.2s" begin="1s" repeatCount="indefinite"/></circle>
</g>

<!-- Left tech panel: x=108 y=182 w=110 h=100 -->
<rect x="108" y="182" width="110" height="100" fill="#020a08" stroke="#0d2820" stroke-width="1"/>
<line x1="108" y1="182" x2="218" y2="182" stroke="#0d5a38" stroke-width="1"/>
<line x1="108" y1="282" x2="218" y2="282" stroke="#0d5a38" stroke-width="1"/>
<!-- Scan line left panel -->
<rect x="108" y="182" width="110" height="2" fill="url(#scanGrad)" clip-path="url(#clip-lp)">
  <animate attributeName="y" from="182" to="282" dur="2.2s" repeatCount="indefinite"/>
  <animate attributeName="opacity" values="0;.8;.8;.6;0" dur="2.2s" repeatCount="indefinite"/>
</rect>
<!-- Dial top-left of left panel -->
<circle cx="128" cy="200" r="11" stroke="#0d5a38" stroke-width="1.5" fill="none"/>
<line x1="128" y1="200" x2="136" y2="200" stroke="#1aaf68" stroke-width="1.5" stroke-linecap="round">
  <animateTransform attributeName="transform" type="rotate" from="0 128 200" to="360 128 200" dur="3s" repeatCount="indefinite"/>
</line>
<!-- Waveform bottom of left panel -->
<svg x="112" y="255" width="102" height="20" viewBox="0 0 100 20">
  <polyline points="0,10 15,10 20,3 25,17 30,10 50,10 55,5 60,15 65,10 100,10" stroke="#1aaf68" stroke-width="1.5" fill="none">
    <animate attributeName="opacity" values=".4;.9;.4" dur="2s" repeatCount="indefinite"/>
  </polyline>
</svg>
<!-- Status dot -->
<circle cx="207" cy="189" r="5" fill="#1aaf68">
  <animate attributeName="opacity" values="1;.25;1" dur="1.8s" repeatCount="indefinite"/>
</circle>

<!-- Right tech panel: x=582 y=182 w=110 h=100 -->
<rect x="582" y="182" width="110" height="100" fill="#020a08" stroke="#0d2820" stroke-width="1"/>
<line x1="582" y1="182" x2="692" y2="182" stroke="#0d5a38" stroke-width="1"/>
<line x1="582" y1="282" x2="692" y2="282" stroke="#0d5a38" stroke-width="1"/>
<!-- Scan line right panel -->
<rect x="582" y="182" width="110" height="2" fill="url(#scanGrad)" clip-path="url(#clip-rp)">
  <animate attributeName="y" from="182" to="282" dur="1.9s" begin=".4s" repeatCount="indefinite"/>
  <animate attributeName="opacity" values="0;.8;.8;.6;0" dur="1.9s" begin=".4s" repeatCount="indefinite"/>
</rect>
<!-- Dial top-right of right panel -->
<circle cx="672" cy="200" r="11" stroke="#0d5a38" stroke-width="1.5" fill="none"/>
<line x1="672" y1="200" x2="680" y2="200" stroke="#1aaf68" stroke-width="1.5" stroke-linecap="round">
  <animateTransform attributeName="transform" type="rotate" from="0 672 200" to="360 672 200" dur="4s" begin="-.5s" repeatCount="indefinite"/>
</line>
<!-- Waveform right panel -->
<svg x="586" y="255" width="102" height="20" viewBox="0 0 100 20">
  <polyline points="0,10 10,10 18,2 26,18 32,10 55,10 60,6 66,14 72,10 100,10" stroke="#1aaf68" stroke-width="1.5" fill="none">
    <animate attributeName="opacity" values=".4;.9;.4" dur="2.4s" begin=".6s" repeatCount="indefinite"/>
  </polyline>
</svg>
<!-- Status rect top-left of right panel -->
<rect x="589" y="185" width="10" height="10" rx="2" fill="none" stroke="#1aaf68" stroke-width="1.5">
  <animate attributeName="opacity" values=".85;1;.85" dur="2.2s" repeatCount="indefinite"/>
</rect>

<!-- Centre frame: x=230 y=174 w=340 h=116 -->
<g class="cframe-g">
  <rect x="230" y="174" width="340" height="116" fill="rgba(3,15,12,.92)" stroke="#1a4a38" stroke-width="2"/>
  <!-- Corner markers -->
  <path d="M230,174 L244,174 M230,174 L230,188" stroke="#45d4a8" stroke-width="2" fill="none"/>
  <path d="M570,174 L556,174 M570,174 L570,188" stroke="#45d4a8" stroke-width="2" fill="none"/>
  <path d="M230,290 L244,290 M230,290 L230,276" stroke="#45d4a8" stroke-width="2" fill="none"/>
  <path d="M570,290 L556,290 M570,290 L570,276" stroke="#45d4a8" stroke-width="2" fill="none"/>
</g>

<!-- Top emblem wings centred on frame top -->
<use href="#wings-sm" x="382" y="162" width="36" height="24"/>

<!-- Lightning bolt flash -->
<g class="lx" transform="translate(375,196)">
  <svg width="50" height="70" viewBox="0 0 50 70" fill="none">
    <path d="M28 2L14 35 24 35 12 68 40 28 30 28Z" fill="#45d4a8" opacity=".9"/>
    <path d="M28 2L14 35 24 35 12 68 40 28 30 28Z" fill="#fff" opacity=".3"/>
  </svg>
</g>

<!-- AOT title -->
<text x="400" y="215" font-family="Arial,Helvetica,sans-serif" font-size="11" fill="#5a9a88" text-anchor="middle" letter-spacing="5">Attack on</text>
<text class="aot-title" x="400" y="243" font-family="Georgia,'Times New Roman',serif" font-size="26" font-weight="900" fill="#45d4a8" text-anchor="middle" letter-spacing="3">TITAN</text>
<text x="400" y="264" font-family="Arial,Helvetica,sans-serif" font-size="9" fill="#3a6a58" letter-spacing="3" text-anchor="middle">Tactical &amp; Advanced Engineering</text>

<!-- ═══════════════════════════════════════════════════ -->
<!-- SECTION 3 — BADGES  (y 295..355)                   -->
<!-- ═══════════════════════════════════════════════════ -->
<rect x="0" y="295" width="800" height="60" fill="#030810"/>
<line x1="0" y1="355" x2="800" y2="355" stroke="#0d1a28" stroke-width="1"/>

<!-- 4 badges, each 172×40, gap 10, total 718, left margin 41 -->
<!-- Badge 1: ACTIVE DUTY (teal) -->
<g class="badge1" transform="translate(41,307)">
  <rect x="0" y="0" width="172" height="40" fill="rgba(0,60,35,.25)" stroke="#1a5a40" stroke-width="1.5"/>
  <line x1="0" y1="0" x2="172" y2="0" stroke="#45d4a8" stroke-width="1.5" opacity=".5"/>
  <text x="86" y="15" font-family="Arial,Helvetica,sans-serif" font-size="7.5" fill="#45d4a8" opacity=".7" letter-spacing="2" text-anchor="middle">STATUS</text>
  <text x="86" y="30" font-family="Arial,Helvetica,sans-serif" font-size="11" font-weight="700" fill="#45d4a8" letter-spacing="2" text-anchor="middle">ACTIVE DUTY</text>
</g>
<!-- Badge 2: SURVEY CORPS (red) -->
<g class="badge2" transform="translate(223,307)">
  <rect x="0" y="0" width="172" height="40" fill="rgba(60,0,0,.25)" stroke="#5a1a1a" stroke-width="1.5"/>
  <line x1="0" y1="0" x2="172" y2="0" stroke="#d44545" stroke-width="1.5" opacity=".5"/>
  <text x="86" y="15" font-family="Arial,Helvetica,sans-serif" font-size="7.5" fill="#d44545" opacity=".7" letter-spacing="2" text-anchor="middle">REGIMENT</text>
  <text x="86" y="30" font-family="Arial,Helvetica,sans-serif" font-size="11" font-weight="700" fill="#d44545" letter-spacing="2" text-anchor="middle">SURVEY CORPS</text>
</g>
<!-- Badge 3: CAIRO EGYPT (purple) -->
<g class="badge3" transform="translate(405,307)">
  <rect x="0" y="0" width="172" height="40" fill="rgba(40,0,60,.25)" stroke="#3a1a5a" stroke-width="1.5"/>
  <line x1="0" y1="0" x2="172" y2="0" stroke="#a045d4" stroke-width="1.5" opacity=".5"/>
  <text x="86" y="15" font-family="Arial,Helvetica,sans-serif" font-size="7.5" fill="#a045d4" opacity=".7" letter-spacing="2" text-anchor="middle">BASE</text>
  <text x="86" y="30" font-family="Arial,Helvetica,sans-serif" font-size="11" font-weight="700" fill="#a045d4" letter-spacing="2" text-anchor="middle">CAIRO, EGYPT</text>
</g>
<!-- Badge 4: WALLS OF CODE (pink) -->
<g class="badge4" transform="translate(587,307)">
  <rect x="0" y="0" width="172" height="40" fill="rgba(60,0,30,.25)" stroke="#5a1a3a" stroke-width="1.5"/>
  <line x1="0" y1="0" x2="172" y2="0" stroke="#d445a0" stroke-width="1.5" opacity=".5"/>
  <text x="86" y="15" font-family="Arial,Helvetica,sans-serif" font-size="7.5" fill="#d445a0" opacity=".7" letter-spacing="2" text-anchor="middle">MISSION</text>
  <text x="86" y="30" font-family="Arial,Helvetica,sans-serif" font-size="11" font-weight="700" fill="#d445a0" letter-spacing="2" text-anchor="middle">WALLS OF CODE</text>
</g>



<!-- ═══════════════════════════════════════════════════ -->
<!-- SECTION 4 — CODE TERMINAL  (y 355..440)            -->
<!-- ═══════════════════════════════════════════════════ -->
<rect x="0" y="355" width="800" height="85" fill="#010c08"/>
<line x1="0" y1="355" x2="800" y2="355" stroke="#0d2820" stroke-width="1"/>

<!-- Terminal window -->
<rect x="50" y="364" width="700" height="68" rx="4" fill="#030f08" stroke="#0d3a20" stroke-width="1.5"/>
<!-- Terminal title bar -->
<rect x="50" y="364" width="700" height="16" rx="4" fill="#071a10"/>
<rect x="50" y="372" width="700" height="8" fill="#071a10"/>
<!-- Traffic lights -->
<circle cx="66" cy="372" r="4" fill="#ff5f56" opacity=".9"/>
<circle cx="80" cy="372" r="4" fill="#ffbd2e" opacity=".9"/>
<circle cx="94" cy="372" r="4" fill="#27c93f" opacity=".9"/>
<!-- Terminal title -->
<text x="400" y="375" font-family="'Courier New',Courier,monospace" font-size="8" fill="#3a7a58" text-anchor="middle" letter-spacing="1.5">SURVEY CORPS — ENGINEERING TERMINAL v2.0</text>

<!-- Code line 1 -->
<text x="68" y="396" font-family="'Courier New',Courier,monospace" font-size="9.5" fill="#45d4a8">❯</text>
<text x="82" y="396" font-family="'Courier New',Courier,monospace" font-size="9.5" fill="#7af8d0">git commit -m <tspan fill="#ffbd2e">"feat: Scentra perfume app — Flutter &amp; Firebase"</tspan></text>
<!-- Animated status line 1 -->
<text x="68" y="396" font-family="'Courier New',Courier,monospace" font-size="9.5" fill="#45d4a8" opacity="0">
  <animate attributeName="opacity" values="0;0;1;1" keyTimes="0;0.1;0.15;1" dur="6s" repeatCount="indefinite"/>
</text>

<!-- Code line 2 -->
<text x="68" y="412" font-family="'Courier New',Courier,monospace" font-size="9.5" fill="#45d4a8">❯</text>
<text x="82" y="412" font-family="'Courier New',Courier,monospace" font-size="9.5" fill="#b388ff">java</text>
<text x="108" y="412" font-family="'Courier New',Courier,monospace" font-size="9.5" fill="#7af8d0"> · </text>
<text x="124" y="412" font-family="'Courier New',Courier,monospace" font-size="9.5" fill="#b388ff">kotlin</text>
<text x="166" y="412" font-family="'Courier New',Courier,monospace" font-size="9.5" fill="#7af8d0"> · </text>
<text x="182" y="412" font-family="'Courier New',Courier,monospace" font-size="9.5" fill="#b388ff">dart</text>
<text x="214" y="412" font-family="'Courier New',Courier,monospace" font-size="9.5" fill="#7af8d0"> · </text>
<text x="230" y="412" font-family="'Courier New',Courier,monospace" font-size="9.5" fill="#b388ff">flutter</text>
<text x="282" y="412" font-family="'Courier New',Courier,monospace" font-size="9.5" fill="#7af8d0"> · </text>
<text x="298" y="412" font-family="'Courier New',Courier,monospace" font-size="9.5" fill="#b388ff">c++</text>
<text x="326" y="412" font-family="'Courier New',Courier,monospace" font-size="9.5" fill="#7af8d0"> · </text>
<text x="342" y="412" font-family="'Courier New',Courier,monospace" font-size="9.5" fill="#b388ff">ktor</text>
<text x="374" y="412" font-family="'Courier New',Courier,monospace" font-size="9.5" fill="#7af8d0"> — </text>
<text x="398" y="412" font-family="'Courier New',Courier,monospace" font-size="9.5" fill="#27c93f">Scout. Build. Ship. Repeat.</text>

<!-- Blinking cursor -->
<rect x="646" y="403" width="7" height="11" fill="#45d4a8" class="cursor"/>

<!-- Animated scan line inside terminal -->
<rect x="52" y="380" width="696" height="1.5" fill="#1aaf68" opacity="0">
  <animate attributeName="y" from="380" to="428" dur="3s" repeatCount="indefinite"/>
  <animate attributeName="opacity" values="0;.4;.4;0" dur="3s" repeatCount="indefinite"/>
</rect>


</svg>
