<svg xmlns="http://www.w3.org/2000/svg" viewBox="0 0 860 420" width="860" height="420">
<defs>
  <style>
    @keyframes twinkle  { 0%,100%{opacity:.1} 50%{opacity:1} }
    @keyframes scanMove { 0%{x:213px} 100%{x:647px} }
    .star { animation: twinkle var(--d,3s) var(--dl,0s) infinite ease-in-out; }
  </style>

  <!-- Sky gradient -->
  <linearGradient id="sky" x1="0" y1="0" x2="0" y2="1">
    <stop offset="0%"   stop-color="#030312"/>
    <stop offset="70%"  stop-color="#060a18"/>
    <stop offset="100%" stop-color="#0c1525"/>
  </linearGradient>

  <!-- Wall gradient -->
  <linearGradient id="wallG" x1="0" y1="0" x2="0" y2="1">
    <stop offset="0%"   stop-color="#2d2820"/>
    <stop offset="100%" stop-color="#1a1510"/>
  </linearGradient>

  <!-- Sword blade gradient -->
  <linearGradient id="bladeG" x1="0" y1="0" x2="1" y2="0">
    <stop offset="0%"   stop-color="#888070"/>
    <stop offset="40%"  stop-color="#e8e0d0"/>
    <stop offset="60%"  stop-color="#e8e0d0"/>
    <stop offset="100%" stop-color="#888070"/>
  </linearGradient>

  <!-- Inner panel glow -->
  <radialGradient id="innerGlow" cx="50%" cy="50%" r="60%">
    <stop offset="0%"   stop-color="#002222"/>
    <stop offset="100%" stop-color="#040808"/>
  </radialGradient>

  <!-- Scan line gradient -->
  <linearGradient id="scanG" x1="0" y1="0" x2="1" y2="0">
    <stop offset="0%"   stop-color="#00fff7" stop-opacity="0"/>
    <stop offset="50%"  stop-color="#00fff7" stop-opacity="0.4"/>
    <stop offset="100%" stop-color="#00fff7" stop-opacity="0"/>
  </linearGradient>

  <!-- Clip for top banner -->
  <clipPath id="bannerClip"><rect width="860" height="282"/></clipPath>
  <!-- Clip for inner panel -->
  <clipPath id="panelClip"><rect x="213" y="298" width="434" height="114"/></clipPath>
</defs>

<!-- ═══════════════════════════════════════════ -->
<!--              TOP STARRY BANNER              -->
<!-- ═══════════════════════════════════════════ -->
<g clip-path="url(#bannerClip)">

  <!-- Sky background -->
  <rect width="860" height="282" fill="url(#sky)"/>

  <!-- ── Stars row 1 ── -->
  <circle cx="25"  cy="15" r="1.2" fill="white" class="star" style="--d:2.3s;--dl:0s"/>
  <circle cx="60"  cy="8"  r="0.8" fill="white" class="star" style="--d:3.1s;--dl:.3s"/>
  <circle cx="105" cy="20" r="1.3" fill="white" class="star" style="--d:2.7s;--dl:.8s"/>
  <circle cx="150" cy="10" r="0.9" fill="white" class="star" style="--d:3.5s;--dl:.2s"/>
  <circle cx="195" cy="22" r="1.1" fill="white" class="star" style="--d:2.1s;--dl:1.1s"/>
  <circle cx="245" cy="7"  r="1.3" fill="white" class="star" style="--d:3.8s;--dl:.6s"/>
  <circle cx="295" cy="17" r="0.7" fill="white" class="star" style="--d:2.9s;--dl:1.4s"/>
  <circle cx="335" cy="5"  r="1.0" fill="white" class="star" style="--d:3.3s;--dl:.4s"/>
  <circle cx="375" cy="19" r="1.4" fill="white" class="star" style="--d:2.5s;--dl:.9s"/>
  <circle cx="415" cy="9"  r="0.9" fill="white" class="star" style="--d:3.6s;--dl:1.7s"/>
  <circle cx="455" cy="24" r="1.0" fill="white" class="star" style="--d:2.2s;--dl:.1s"/>
  <circle cx="505" cy="7"  r="0.8" fill="white" class="star" style="--d:3.4s;--dl:1.0s"/>
  <circle cx="550" cy="14" r="1.3" fill="white" class="star" style="--d:2.8s;--dl:.7s"/>
  <circle cx="595" cy="5"  r="1.0" fill="white" class="star" style="--d:3.9s;--dl:1.3s"/>
  <circle cx="640" cy="20" r="1.2" fill="white" class="star" style="--d:2.4s;--dl:.5s"/>
  <circle cx="685" cy="9"  r="0.8" fill="white" class="star" style="--d:3.2s;--dl:1.6s"/>
  <circle cx="730" cy="17" r="1.4" fill="white" class="star" style="--d:2.6s;--dl:.2s"/>
  <circle cx="775" cy="6"  r="1.0" fill="white" class="star" style="--d:3.7s;--dl:1.2s"/>
  <circle cx="818" cy="22" r="0.9" fill="white" class="star" style="--d:2.0s;--dl:.8s"/>
  <circle cx="845" cy="11" r="1.1" fill="white" class="star" style="--d:3.0s;--dl:1.5s"/>

  <!-- ── Stars row 2 ── -->
  <circle cx="18"  cy="48" r="0.8" fill="white" class="star" style="--d:3.3s;--dl:.4s"/>
  <circle cx="72"  cy="40" r="1.2" fill="white" class="star" style="--d:2.5s;--dl:1.1s"/>
  <circle cx="128" cy="52" r="0.9" fill="white" class="star" style="--d:3.8s;--dl:.6s"/>
  <circle cx="172" cy="36" r="1.1" fill="white" class="star" style="--d:2.2s;--dl:1.3s"/>
  <circle cx="218" cy="55" r="1.3" fill="white" class="star" style="--d:3.1s;--dl:.2s"/>
  <circle cx="262" cy="42" r="0.8" fill="white" class="star" style="--d:2.9s;--dl:.9s"/>
  <circle cx="308" cy="58" r="1.0" fill="white" class="star" style="--d:3.5s;--dl:1.5s"/>
  <circle cx="352" cy="36" r="1.4" fill="white" class="star" style="--d:2.3s;--dl:.3s"/>
  <circle cx="396" cy="50" r="0.9" fill="white" class="star" style="--d:3.6s;--dl:1.0s"/>
  <circle cx="440" cy="40" r="1.2" fill="white" class="star" style="--d:2.7s;--dl:.7s"/>
  <circle cx="484" cy="55" r="1.0" fill="white" class="star" style="--d:3.4s;--dl:1.4s"/>
  <circle cx="530" cy="34" r="0.8" fill="white" class="star" style="--d:2.1s;--dl:.5s"/>
  <circle cx="574" cy="52" r="1.3" fill="white" class="star" style="--d:3.9s;--dl:1.2s"/>
  <circle cx="618" cy="38" r="1.1" fill="white" class="star" style="--d:2.4s;--dl:.1s"/>
  <circle cx="660" cy="54" r="0.9" fill="white" class="star" style="--d:3.2s;--dl:1.6s"/>
  <circle cx="704" cy="40" r="1.5" fill="white" class="star" style="--d:2.6s;--dl:.4s"/>
  <circle cx="748" cy="48" r="1.0" fill="white" class="star" style="--d:3.7s;--dl:1.1s"/>
  <circle cx="792" cy="36" r="0.8" fill="white" class="star" style="--d:2.0s;--dl:.8s"/>
  <circle cx="836" cy="52" r="1.2" fill="white" class="star" style="--d:3.3s;--dl:1.3s"/>

  <!-- ── Stars row 3 ── -->
  <circle cx="35"  cy="78"  r="1.0" fill="#aaaaff" class="star" style="--d:2.8s;--dl:.6s"/>
  <circle cx="85"  cy="70"  r="0.8" fill="white"   class="star" style="--d:3.4s;--dl:1.0s"/>
  <circle cx="138" cy="86"  r="1.3" fill="white"   class="star" style="--d:2.3s;--dl:.3s"/>
  <circle cx="188" cy="68"  r="0.9" fill="white"   class="star" style="--d:3.9s;--dl:1.4s"/>
  <circle cx="235" cy="82"  r="1.1" fill="#aaaaff" class="star" style="--d:2.1s;--dl:.7s"/>
  <circle cx="280" cy="73"  r="0.8" fill="white"   class="star" style="--d:3.5s;--dl:1.1s"/>
  <circle cx="325" cy="88"  r="1.4" fill="white"   class="star" style="--d:2.7s;--dl:.4s"/>
  <circle cx="370" cy="66"  r="1.0" fill="white"   class="star" style="--d:3.2s;--dl:1.5s"/>
  <circle cx="415" cy="80"  r="0.9" fill="white"   class="star" style="--d:2.5s;--dl:.2s"/>
  <circle cx="460" cy="70"  r="1.2" fill="#aaaaff" class="star" style="--d:3.6s;--dl:.8s"/>
  <circle cx="505" cy="84"  r="0.8" fill="white"   class="star" style="--d:2.2s;--dl:1.2s"/>
  <circle cx="548" cy="68"  r="1.1" fill="white"   class="star" style="--d:3.8s;--dl:.5s"/>
  <circle cx="592" cy="82"  r="1.3" fill="white"   class="star" style="--d:2.4s;--dl:1.0s"/>
  <circle cx="634" cy="70"  r="0.9" fill="white"   class="star" style="--d:3.1s;--dl:.3s"/>
  <circle cx="676" cy="86"  r="1.5" fill="white"   class="star" style="--d:2.9s;--dl:1.4s"/>
  <circle cx="718" cy="68"  r="0.8" fill="#aaaaff" class="star" style="--d:3.3s;--dl:.6s"/>
  <circle cx="760" cy="78"  r="1.0" fill="white"   class="star" style="--d:2.6s;--dl:1.1s"/>
  <circle cx="802" cy="66"  r="1.2" fill="white"   class="star" style="--d:3.7s;--dl:.9s"/>
  <circle cx="842" cy="80"  r="0.9" fill="white"   class="star" style="--d:2.0s;--dl:1.5s"/>

  <!-- ── Stars row 4 (scattered mid sky) ── -->
  <circle cx="52"  cy="108" r="0.9" fill="white"   class="star" style="--d:3.4s;--dl:.5s"/>
  <circle cx="115" cy="100" r="0.7" fill="white"   class="star" style="--d:2.6s;--dl:1.2s"/>
  <circle cx="178" cy="115" r="1.1" fill="white"   class="star" style="--d:3.2s;--dl:.3s"/>
  <circle cx="258" cy="102" r="0.8" fill="#aaaaff" class="star" style="--d:2.9s;--dl:.9s"/>
  <circle cx="358" cy="110" r="1.2" fill="white"   class="star" style="--d:3.6s;--dl:1.5s"/>
  <circle cx="500" cy="98"  r="0.9" fill="white"   class="star" style="--d:2.3s;--dl:.4s"/>
  <circle cx="570" cy="112" r="1.0" fill="white"   class="star" style="--d:3.8s;--dl:1.0s"/>
  <circle cx="658" cy="104" r="0.8" fill="white"   class="star" style="--d:2.5s;--dl:.7s"/>
  <circle cx="742" cy="116" r="1.3" fill="#aaaaff" class="star" style="--d:3.0s;--dl:1.3s"/>
  <circle cx="825" cy="102" r="0.9" fill="white"   class="star" style="--d:2.7s;--dl:.2s"/>

  <!-- ── Top scroll bar ── -->
  <rect x="0" y="0" width="860" height="16" fill="#261c10"/>
  <rect x="0" y="0" width="860" height="16" fill="none" stroke="#8b6914" stroke-width="1.5"/>

  <!-- ── Bottom scroll bar of banner ── -->
  <rect x="0" y="265" width="860" height="17" fill="#261c10"/>
  <rect x="0" y="265" width="860" height="17" fill="none" stroke="#8b6914" stroke-width="1.5"/>

  <!-- ── Left scroll border ── -->
  <rect x="0" y="16" width="44" height="249" fill="#2e2415"/>
  <rect x="0" y="16" width="44" height="249" fill="none" stroke="#8b6914" stroke-width="1.5"/>
  <line x1="6" y1="30"  x2="38" y2="30"  stroke="#6b4a0a" stroke-width="1" opacity=".5"/>
  <line x1="6" y1="50"  x2="38" y2="50"  stroke="#6b4a0a" stroke-width="1" opacity=".4"/>
  <line x1="6" y1="70"  x2="38" y2="70"  stroke="#6b4a0a" stroke-width="1" opacity=".4"/>
  <line x1="6" y1="90"  x2="38" y2="90"  stroke="#6b4a0a" stroke-width="1" opacity=".4"/>
  <line x1="6" y1="110" x2="38" y2="110" stroke="#6b4a0a" stroke-width="1" opacity=".4"/>
  <line x1="6" y1="130" x2="38" y2="130" stroke="#6b4a0a" stroke-width="1" opacity=".4"/>
  <line x1="6" y1="150" x2="38" y2="150" stroke="#6b4a0a" stroke-width="1" opacity=".4"/>
  <line x1="6" y1="170" x2="38" y2="170" stroke="#6b4a0a" stroke-width="1" opacity=".4"/>
  <line x1="6" y1="190" x2="38" y2="190" stroke="#6b4a0a" stroke-width="1" opacity=".4"/>
  <line x1="6" y1="210" x2="38" y2="210" stroke="#6b4a0a" stroke-width="1" opacity=".4"/>
  <line x1="6" y1="230" x2="38" y2="230" stroke="#6b4a0a" stroke-width="1" opacity=".4"/>
  <line x1="6" y1="250" x2="38" y2="250" stroke="#6b4a0a" stroke-width="1" opacity=".4"/>

  <!-- ── Right scroll border ── -->
  <rect x="816" y="16" width="44" height="249" fill="#2e2415"/>
  <rect x="816" y="16" width="44" height="249" fill="none" stroke="#8b6914" stroke-width="1.5"/>
  <line x1="822" y1="30"  x2="854" y2="30"  stroke="#6b4a0a" stroke-width="1" opacity=".5"/>
  <line x1="822" y1="50"  x2="854" y2="50"  stroke="#6b4a0a" stroke-width="1" opacity=".4"/>
  <line x1="822" y1="70"  x2="854" y2="70"  stroke="#6b4a0a" stroke-width="1" opacity=".4"/>
  <line x1="822" y1="90"  x2="854" y2="90"  stroke="#6b4a0a" stroke-width="1" opacity=".4"/>
  <line x1="822" y1="110" x2="854" y2="110" stroke="#6b4a0a" stroke-width="1" opacity=".4"/>
  <line x1="822" y1="130" x2="854" y2="130" stroke="#6b4a0a" stroke-width="1" opacity=".4"/>
  <line x1="822" y1="150" x2="854" y2="150" stroke="#6b4a0a" stroke-width="1" opacity=".4"/>
  <line x1="822" y1="170" x2="854" y2="170" stroke="#6b4a0a" stroke-width="1" opacity=".4"/>
  <line x1="822" y1="190" x2="854" y2="190" stroke="#6b4a0a" stroke-width="1" opacity=".4"/>
  <line x1="822" y1="210" x2="854" y2="210" stroke="#6b4a0a" stroke-width="1" opacity=".4"/>
  <line x1="822" y1="230" x2="854" y2="230" stroke="#6b4a0a" stroke-width="1" opacity=".4"/>
  <line x1="822" y1="250" x2="854" y2="250" stroke="#6b4a0a" stroke-width="1" opacity=".4"/>

  <!-- ── Wall Maria (left) ── -->
  <rect x="44"  y="195" width="90" height="70" fill="url(#wallG)" opacity=".9"/>
  <rect x="58"  y="180" width="22" height="18"  fill="#2d2820"    opacity=".9"/>
  <rect x="84"  y="180" width="22" height="18"  fill="#2d2820"    opacity=".9"/>
  <text x="89"  y="232" text-anchor="middle" fill="#9a7845" font-family="Arial" font-size="11" font-weight="bold" letter-spacing="1">MARIA</text>

  <!-- ── Wall Rose (centre, distant) ── -->
  <rect x="310" y="210" width="240" height="55"  fill="url(#wallG)" opacity=".6"/>
  <rect x="330" y="196" width="18"  height="16"  fill="#2d2820"    opacity=".6"/>
  <rect x="360" y="196" width="18"  height="16"  fill="#2d2820"    opacity=".6"/>
  <rect x="460" y="196" width="18"  height="16"  fill="#2d2820"    opacity=".6"/>
  <rect x="490" y="196" width="18"  height="16"  fill="#2d2820"    opacity=".6"/>
  <text x="430" y="237" text-anchor="middle" fill="#9a7845" font-family="Arial" font-size="11" font-weight="bold" letter-spacing="1" opacity=".6">ROSE</text>

  <!-- ── Wall Sina (right) ── -->
  <rect x="726" y="195" width="90" height="70" fill="url(#wallG)" opacity=".9"/>
  <rect x="740" y="180" width="22" height="18"  fill="#2d2820"    opacity=".9"/>
  <rect x="766" y="180" width="22" height="18"  fill="#2d2820"    opacity=".9"/>
  <text x="771" y="232" text-anchor="middle" fill="#9a7845" font-family="Arial" font-size="11" font-weight="bold" letter-spacing="1">SINA</text>

  <!-- ═══════════════════════════════════ -->
  <!--      CROSSED SWORDS at top         -->
  <!-- ═══════════════════════════════════ -->

  <!-- Sword LEFT (leans to the right) -->
  <g transform="translate(430,12) rotate(-42) translate(-4,0)">
    <rect  x="-2.5" y="-115" width="5" height="145" fill="url(#bladeG)" rx="1.5"/>
    <polygon points="0,-125 -2.5,-110 2.5,-110" fill="#c8c0b0"/>
    <rect  x="-16" y="25" width="32" height="9" fill="#8b6914" rx="2"/>
    <rect  x="-14" y="23" width="28" height="4" fill="#a07820" rx="1"/>
    <rect  x="-3.5" y="34" width="7" height="44" fill="#5a1a00" rx="2"/>
    <line x1="-3.5" y1="40" x2="3.5" y2="40" stroke="#3a0800" stroke-width="1.5" opacity=".6"/>
    <line x1="-3.5" y1="48" x2="3.5" y2="48" stroke="#3a0800" stroke-width="1.5" opacity=".6"/>
    <line x1="-3.5" y1="56" x2="3.5" y2="56" stroke="#3a0800" stroke-width="1.5" opacity=".6"/>
    <line x1="-3.5" y1="64" x2="3.5" y2="64" stroke="#3a0800" stroke-width="1.5" opacity=".6"/>
    <ellipse cx="0" cy="82" rx="6" ry="7" fill="#8b6914"/>
    <ellipse cx="0" cy="82" rx="4" ry="5" fill="#a07820"/>
    <!-- golden glow pulse on blade -->
    <rect x="-2.5" y="-115" width="5" height="145" fill="#ffd700" rx="1.5">
      <animate attributeName="opacity" values="0;0.25;0" dur="3s" repeatCount="indefinite"/>
    </rect>
  </g>

  <!-- Sword RIGHT (leans to the left) -->
  <g transform="translate(430,12) rotate(42) translate(4,0)">
    <rect  x="-2.5" y="-115" width="5" height="145" fill="url(#bladeG)" rx="1.5"/>
    <polygon points="0,-125 -2.5,-110 2.5,-110" fill="#c8c0b0"/>
    <rect  x="-16" y="25" width="32" height="9" fill="#8b6914" rx="2"/>
    <rect  x="-14" y="23" width="28" height="4" fill="#a07820" rx="1"/>
    <rect  x="-3.5" y="34" width="7" height="44" fill="#5a1a00" rx="2"/>
    <line x1="-3.5" y1="40" x2="3.5" y2="40" stroke="#3a0800" stroke-width="1.5" opacity=".6"/>
    <line x1="-3.5" y1="48" x2="3.5" y2="48" stroke="#3a0800" stroke-width="1.5" opacity=".6"/>
    <line x1="-3.5" y1="56" x2="3.5" y2="56" stroke="#3a0800" stroke-width="1.5" opacity=".6"/>
    <line x1="-3.5" y1="64" x2="3.5" y2="64" stroke="#3a0800" stroke-width="1.5" opacity=".6"/>
    <ellipse cx="0" cy="82" rx="6" ry="7" fill="#8b6914"/>
    <ellipse cx="0" cy="82" rx="4" ry="5" fill="#a07820"/>
    <rect x="-2.5" y="-115" width="5" height="145" fill="#ffd700" rx="1.5">
      <animate attributeName="opacity" values="0;0.25;0" dur="3s" begin="0.5s" repeatCount="indefinite"/>
    </rect>
  </g>

  <!-- ═══════════════════════════════════ -->
  <!--          MAIN TITLE TEXT           -->
  <!-- ═══════════════════════════════════ -->

  <!-- Drop shadow -->
  <text x="433" y="150" text-anchor="middle"
        font-family="'Arial Black',Impact,sans-serif" font-size="50" font-weight="900"
        letter-spacing="4" fill="#001414" opacity=".7">SHINGEKI NO CODER</text>

  <!-- Primary title -->
  <text x="430" y="147" text-anchor="middle"
        font-family="'Arial Black',Impact,sans-serif" font-size="50" font-weight="900"
        letter-spacing="4" fill="white">
    SHINGEKI NO CODER
    <animate attributeName="opacity" values="0.85;1;0.85" dur="2.5s" repeatCount="indefinite"/>
  </text>

  <!-- Cyan shimmer overlay -->
  <text x="430" y="147" text-anchor="middle"
        font-family="'Arial Black',Impact,sans-serif" font-size="50" font-weight="900"
        letter-spacing="4" fill="#88ffff">
    SHINGEKI NO CODER
    <animate attributeName="opacity" values="0;0.12;0" dur="2.5s" repeatCount="indefinite"/>
  </text>

  <!-- Subtitle: ⚔ Omar Nagi ⚔ -->
  <text x="430" y="178" text-anchor="middle"
        font-family="Arial,sans-serif" font-size="22" font-weight="700"
        letter-spacing="3" fill="#00fff7">
    ⚔ Omar Nagi ⚔
    <animate attributeName="opacity" values="0.65;1;0.65" dur="2s" begin="0.4s" repeatCount="indefinite"/>
  </text>

  <!-- Bio line 1 -->
  <text x="430" y="207" text-anchor="middle"
        font-family="'Courier New',monospace" font-size="10.5" fill="#c8c8c8" opacity=".9">
    ⚔ "If you win, you live. If you lose, you die." | Android Dev | Flutter | CF: Nagi_14
  </text>

  <!-- Bio line 2 -->
  <text x="430" y="225" text-anchor="middle"
        font-family="'Courier New',monospace" font-size="10.5" fill="#c8c8c8" opacity=".85">
    🚀 Aspiring SWE | Cairo, Egypt 🇪🇬 | Ktor Backend | Building Scentra 🌸
  </text>

</g><!-- end bannerClip -->


<!-- ═══════════════════════════════════════════ -->
<!--           TACTICAL PANEL (AoT)             -->
<!-- ═══════════════════════════════════════════ -->

<!-- Dark strip background -->
<rect y="282" width="860" height="138" fill="#070c0c"/>

<!-- ── Left console ── -->
<rect x="40" y="290" width="148" height="120" fill="#0a1010" stroke="#334444" stroke-width="1.5" rx="3"/>

<!-- Left heartbeat wave -->
<polyline points="52,322 62,322 67,308 72,336 77,308 82,336 87,322 97,322 102,312 109,332 115,322 135,322 162,322 180,322"
          fill="none" stroke="#00fff7" stroke-width="1.5" opacity=".75"
          stroke-dasharray="240" stroke-dashoffset="240">
  <animate attributeName="stroke-dashoffset" values="240;0;-240" dur="2.5s" repeatCount="indefinite"/>
</polyline>

<!-- Left circular gauge -->
<circle cx="105" cy="370" r="20" fill="none" stroke="#334444" stroke-width="2"/>
<circle cx="105" cy="370" r="16" fill="none" stroke="#00fff7" stroke-width="1.5">
  <animate attributeName="r"       values="14;18;14" dur="2s" repeatCount="indefinite"/>
  <animate attributeName="opacity" values="0.8;0.3;0.8" dur="2s" repeatCount="indefinite"/>
</circle>

<!-- Left LEDs -->
<rect x="52" y="392" width="11" height="6" fill="#334444" rx="1.5"/>
<rect x="68" y="392" width="11" height="6" fill="#8b0000" rx="1.5">
  <animate attributeName="fill" values="#8b0000;#ff3333;#8b0000" dur="1.5s" repeatCount="indefinite"/>
</rect>
<rect x="84" y="392" width="11" height="6" fill="#00fff7" rx="1.5" opacity=".7"/>
<rect x="145" y="392" width="11" height="6" fill="#334444" rx="1.5"/>
<rect x="161" y="392" width="11" height="6" fill="#00fff7" rx="1.5" opacity=".5"/>

<!-- ── Right console ── -->
<rect x="672" y="290" width="148" height="120" fill="#0a1010" stroke="#334444" stroke-width="1.5" rx="3"/>

<!-- Right heartbeat wave -->
<polyline points="684,322 694,322 699,336 704,308 709,336 714,308 719,322 729,322 734,332 741,312 747,322 762,322 785,322 808,322"
          fill="none" stroke="#00fff7" stroke-width="1.5" opacity=".75"
          stroke-dasharray="240" stroke-dashoffset="240">
  <animate attributeName="stroke-dashoffset" values="240;0;-240" dur="2.8s" repeatCount="indefinite"/>
</polyline>

<!-- Right circular gauge -->
<circle cx="757" cy="370" r="20" fill="none" stroke="#334444" stroke-width="2"/>
<circle cx="757" cy="370" r="16" fill="none" stroke="#b388ff" stroke-width="1.5">
  <animate attributeName="r"       values="14;18;14" dur="2.3s" repeatCount="indefinite"/>
  <animate attributeName="opacity" values="0.8;0.3;0.8" dur="2.3s" repeatCount="indefinite"/>
</circle>

<!-- Right LEDs -->
<rect x="684" y="392" width="11" height="6" fill="#334444" rx="1.5"/>
<rect x="700" y="392" width="11" height="6" fill="#00fff7" rx="1.5" opacity=".7"/>
<rect x="752" y="392" width="11" height="6" fill="#8b0000" rx="1.5">
  <animate attributeName="fill" values="#8b0000;#ff3333;#8b0000" dur="1.8s" repeatCount="indefinite"/>
</rect>
<rect x="768" y="392" width="11" height="6" fill="#b388ff" rx="1.5" opacity=".6"/>
<rect x="795" y="392" width="11" height="6" fill="#334444" rx="1.5"/>

<!-- ── Centre outer frame ── -->
<rect x="198" y="288" width="464" height="134" fill="#0d1515" stroke="#445555" stroke-width="2" rx="4"/>

<!-- ── Inner glowing border (animated) ── -->
<rect x="213" y="298" width="434" height="114" fill="url(#innerGlow)" stroke="#00fff7" rx="3">
  <animate attributeName="stroke-width"   values="1;2.5;1"     dur="2s" repeatCount="indefinite"/>
  <animate attributeName="stroke-opacity" values="0.45;1;0.45" dur="2s" repeatCount="indefinite"/>
</rect>

<!-- ── Scan line ── -->
<rect y="298" width="30" height="114" fill="url(#scanG)" clip-path="url(#panelClip)" opacity=".5">
  <animate attributeName="x" values="213;647" dur="3.5s" repeatCount="indefinite"/>
</rect>

<!-- ── Top diamond emblem ── -->
<polygon points="430,294 436,300 430,306 424,300" fill="#00fff7">
  <animate attributeName="opacity" values="0.4;1;0.4" dur="2s" repeatCount="indefinite"/>
</polygon>

<!-- ── Survey Corps Wings ── -->
<g transform="translate(312,358)">
  <!-- Left wing -->
  <path d="M0,0 L-13,-19 L-26,-13 L-17,2 L-30,-2 L-21,11 L-34,11 L-24,22 L-11,15 L-4,24 L0,15 Z" fill="#00fff7">
    <animate attributeName="opacity" values="0.55;1;0.55" dur="2.5s" repeatCount="indefinite"/>
  </path>
  <!-- Right wing -->
  <path d="M0,0 L13,-19 L26,-13 L17,2 L30,-2 L21,11 L34,11 L24,22 L11,15 L4,24 L0,15 Z" fill="#00fff7">
    <animate attributeName="opacity" values="0.55;1;0.55" dur="2.5s" begin="0.3s" repeatCount="indefinite"/>
  </path>
  <!-- Centre body -->
  <ellipse cx="0" cy="13" rx="9" ry="13" fill="#00fff7" opacity=".85"/>
</g>

<!-- ── Lightning bolts ── -->
<polyline points="284,335 276,349 282,349 272,370" stroke="#00fff7" stroke-width="2" fill="none">
  <animate attributeName="opacity" values="0;1;0;0;0;0.8;0;0;0" dur="4s" repeatCount="indefinite"/>
</polyline>
<polyline points="340,335 348,349 342,349 352,370" stroke="#88ffff" stroke-width="1.5" fill="none">
  <animate attributeName="opacity" values="0;0;0.8;0;0;0;1;0;0" dur="4s" begin="0.3s" repeatCount="indefinite"/>
</polyline>

<!-- Spark dots -->
<circle cx="273" cy="365" r="2.5" fill="#00fff7">
  <animate attributeName="opacity" values="0;0;1;0;0;0.8;0;0" dur="4s" begin=".1s" repeatCount="indefinite"/>
</circle>
<circle cx="350" cy="362" r="2"   fill="#88ffff">
  <animate attributeName="opacity" values="0;0.8;0;0;0;1;0;0;0" dur="4s" begin=".4s" repeatCount="indefinite"/>
</circle>
<circle cx="312" cy="378" r="3"   fill="#00fff7">
  <animate attributeName="opacity" values="0;1;0;0;0;0;0.9;0;0" dur="4s" begin=".2s" repeatCount="indefinite"/>
</circle>

<!-- ── "Attack on Titan" gothic text ── -->
<text x="492" y="344" text-anchor="middle"
      font-family="Georgia,'Times New Roman',serif"
      font-size="28" font-weight="900" font-style="italic"
      letter-spacing="4" fill="#aaffee">
  Attack on Titan
  <animate attributeName="opacity" values="0.7;1;0.7" dur="3s" begin="0.8s" repeatCount="indefinite"/>
</text>

<!-- Subtitle -->
<text x="492" y="370" text-anchor="middle"
      font-family="Arial,sans-serif" font-size="12"
      letter-spacing="2" fill="#88cccc" opacity=".8">
  Tactical &amp; Advanced Engineering
</text>

<!-- ── Circuit board decorations ── -->
<g stroke="#00fff7" stroke-width="1" fill="none" opacity=".22">
  <polyline points="220,308 242,308 242,326"/>
  <circle   cx="242" cy="326" r="2.5" fill="#00fff7"/>
  <polyline points="220,350 236,350 236,367 224,367"/>
  <circle   cx="224" cy="367" r="2"   fill="#00fff7"/>
  <polyline points="640,308 618,308 618,326"/>
  <circle   cx="618" cy="326" r="2.5" fill="#00fff7"/>
  <polyline points="640,354 626,354 626,369 638,369"/>
  <circle   cx="638" cy="369" r="2"   fill="#00fff7"/>
</g>

</svg>
